<?xml version="1.0" encoding="utf-8"?>
<!-- Generator: Adobe Illustrator 19.0.0, SVG Export Plug-In . SVG Version: 6.00 Build 0)  -->
<svg version="1.1" id="Capa_1" xmlns="http://www.w3.org/2000/svg" xmlns:xlink="http://www.w3.org/1999/xlink" x="0px" y="0px"
	 viewBox="0 0 105 105" style="enable-background:new 0 0 105 105;" xml:space="preserve">
<style type="text/css">
	.st0{fill:#FFFFFF;}
</style>
<g>
	<path class="st0" d="M84.8,20.6c-11.6-11.7-30.4-11.7-42,0c-4.2,4.2-6.8,9.4-8,14.8v0L20.4,85.6L70.1,71c5.4-1.2,10.5-3.9,14.7-8.1
		C96.4,51.2,96.4,32.3,84.8,20.6z M76.7,48.6C71.2,54,62.5,54,57,48.6c-5.4-5.5-5.4-14.3,0-19.8c5.4-5.5,14.2-5.5,19.6,0
		C82.1,34.3,82.1,43.1,76.7,48.6z"/>
	<ellipse class="st0" cx="14.9" cy="89" rx="3.4" ry="3.4"/>
</g>
</svg>
