<?xml version="1.0" encoding="utf-8"?>
<!-- Generator: Adobe Illustrator 19.0.0, SVG Export Plug-In . SVG Version: 6.00 Build 0)  -->
<svg version="1.1" id="Capa_1" xmlns="http://www.w3.org/2000/svg" xmlns:xlink="http://www.w3.org/1999/xlink" x="0px" y="0px"
	 viewBox="0 0 105 105" style="enable-background:new 0 0 105 105;" xml:space="preserve">
<style type="text/css">
	.st0{fill:#FFFFFF;}
</style>
<g>
	<path class="st0" d="M46.5,62.7c0.4,0.1,0.9,0.5,1.4,1.1l0.3,0.4c0.5,0.7,2.2,1.8,4,2.7l0.2,0.1c0.1,0,0.2,0.1,0.3,0.1l11.9,4.8
		c0.4,0.2,0.8,0.3,1.2,0.5c1.9,0.7,4.3,1.5,4.4,4.9l0.7,2.7h32.8l-2.7-10.4c0-3-2.1-3.1-4.7-4.1l-11.9-4.8c-0.2-0.1-0.4-0.2-0.6-0.3
		v0c-2.1-1-4-2.3-4.7-3.2l0,0l0,0c0-0.1-0.1-0.1-0.1-0.2l0,0l0,0l0,0v0c-0.3-0.5-0.6-0.7-0.9-0.6l0,0h0v0l0,0l0,0l0,0
		c-0.3,0.2-0.3,0-0.4-0.4c-0.3-0.9-0.9-2.5-0.9-2.8c-0.1-0.5-0.5,0.7-0.4-0.5l0.1-2.3c0.2-0.2,0.4-0.4,0.5-0.6
		c0.8-0.9,0.8-3.2,1.2-3.8c0.4-0.6,1.2-0.7,1.9-3.4c0.8-2.7,1.7-6.5,0.7-6.5c-0.2,0-0.5,0.1-0.8,0.4c0.2-1,0.5-3.2,0.6-4.8
		c0.1-2.2-0.2-7.7-1.5-9.7c-0.8-1.3-2.3-2.5-3.9-3.5c-0.9-0.6-1.8-1.1-2.6-1.4c-2.2-1-9.3-0.5-11.7,0c-2.7,0.6-4.6,2.3-5.9,4.3
		c-1.2,2-1.8,8.1-1.7,10.3c0.1,1,0.6,2.6,0.8,3.6c0.1,0.5,0.2,0.5,0.2,0.9c-0.1,0-0.2-0.1-0.3-0.1c-1,0.1-0.1,3.9,0.7,6.5
		c0.8,2.7,1.6,2.8,1.9,3.4c0.4,0.6,0.4,2.9,1.2,3.8c0.1,0.1,0.3,0.3,0.5,0.6l0.1,1.9l0.3,1c-0.1-0.3-0.4-0.5-0.5-0.1
		c-0.3,1-0.7,2-1,3.1c0-0.1-0.1-0.1-0.2-0.1c-0.3-0.3-0.8,0-1.2,0.6c-0.6,1-2.5,2.4-4.8,3.4l-0.1,0.2l0,0c-0.2,0.1-0.4,0.2-0.5,0.2
		l-4.5,1.8C46.5,62.5,46.5,62.6,46.5,62.7z"/>
	<path class="st0" d="M64.1,73.3l-11.9-4.8c-0.2-0.1-0.4-0.2-0.6-0.3v0c-2.1-1-4-2.3-4.7-3.2l0,0l0,0c0-0.1-0.1-0.1-0.1-0.2l0,0l0,0
		l0,0v0c-0.3-0.5-0.6-0.7-0.9-0.6l0,0h0v0l0,0l0,0l0,0c-0.3,0.2-0.3,0-0.4-0.4c-0.3-0.9-0.9-2.5-0.9-2.8c-0.1-0.5-0.5,0.7-0.4-0.5
		l0.1-2.3c0.2-0.2,0.4-0.4,0.5-0.6c0.8-0.9,0.8-3.2,1.2-3.8c0.4-0.6,1.2-0.7,1.9-3.4c0.8-2.7,1.7-6.5,0.7-6.5
		c-0.2,0-0.5,0.1-0.8,0.4c0.2-1,0.5-3.2,0.6-4.8c0.1-2.2-0.2-7.7-1.5-9.7c-0.8-1.3-2.3-2.5-3.9-3.5c-0.9-0.6-1.8-1.1-2.6-1.4
		c-2.2-1-9.3-0.5-11.7,0c-2.7,0.6-4.6,2.3-5.9,4.3c-1.2,2-1.8,8.1-1.7,10.3c0.1,1,0.6,2.6,0.8,3.6c0.1,0.5,0.2,0.5,0.2,0.9
		c-0.1,0-0.2-0.1-0.3-0.1c-1,0.1-0.1,3.9,0.7,6.5c0.8,2.7,1.6,2.8,1.9,3.4c0.4,0.6,0.4,2.9,1.2,3.8c0.1,0.1,0.3,0.3,0.5,0.6l0.1,1.9
		l0.3,1c-0.1-0.3-0.4-0.5-0.5-0.1c-0.3,1-1.1,3-1.2,3c-0.3-0.3-0.8,0-1.2,0.6c-0.6,1-2.5,2.4-4.8,3.4l-0.1,0.2l0,0
		c-0.2,0.1-0.4,0.2-0.5,0.2L6.7,73.3c-2.6,1-4.7,1.1-4.7,4.1L0,87.8h71.5l-2.7-10.4C68.8,74.4,66.7,74.3,64.1,73.3z"/>
</g>
</svg>
