<?xml version="1.0" encoding="utf-8"?>
<!-- Generator: Adobe Illustrator 19.0.0, SVG Export Plug-In . SVG Version: 6.00 Build 0)  -->
<svg version="1.1" id="Capa_1" xmlns="http://www.w3.org/2000/svg" xmlns:xlink="http://www.w3.org/1999/xlink" x="0px" y="0px"
	 viewBox="0 0 105 105" style="enable-background:new 0 0 105 105;" xml:space="preserve">
<style type="text/css">
	.st0{fill:#FFFFFF;}
</style>
<path class="st0" d="M70.7,89.7v-2h18.5V32.1L80,10.6V4.3h2.5V2.9H80V0h-1.4v2.9h-2.5v1.4h2.5v6.3l-9.3,21.5v28.8h-5.4l-11.3-7.7
	l-11.3,7.7h-5.4V32.1l-9.3-21.5V4.3h2.5V2.9h-2.5V0h-1.4v2.9h-2.5v1.4h2.5v6.3l-9.3,21.5v55.7l19.4,0v2l-22.1,0v14.5h12.8h10h16.7
	l16.7,0h10h12.6V89.7H70.7z M77.5,37.2c0-2.1,1.8-2,1.8-2s1.8-0.1,1.8,2c0,2.1,0,2.6,0,2.6h-1.8h-1.8C77.5,39.8,77.5,39.3,77.5,37.2
	z M79.3,42.1c1.1,0,2,0.9,2,2c0,1.1-0.9,2-2,2c-1.1,0-2-0.9-2-2C77.3,43,78.2,42.1,79.3,42.1z M23.9,37.2c0-2.1,1.8-2,1.8-2
	s1.8-0.1,1.8,2c0,2.1,0,2.6,0,2.6h-1.8h-1.8C23.9,39.8,23.9,39.3,23.9,37.2z M25.7,46.1c-1.1,0-2-0.9-2-2c0-1.1,0.9-2,2-2
	c1.1,0,2,0.9,2,2C27.6,45.2,26.8,46.1,25.7,46.1z M44.8,80.6h-3.5h-3.5c0,0,0-7.4,0-11.6c0-4.2,3.5-4,3.5-4s3.5-0.2,3.5,4
	C44.8,73.2,44.8,80.6,44.8,80.6z M56.1,103.1h-6.9V90.8h6.9V103.1z M56.1,77.1h-3.5h-3.5c0,0,0-7.3,0-11.6c0-4.2,3.5-4,3.5-4
	s3.5-0.2,3.5,4C56.1,69.8,56.1,77.1,56.1,77.1z M67.1,80.6h-3.5h-3.5c0,0,0-7.3,0-11.6c0-4.2,3.5-4,3.5-4s3.5-0.2,3.5,4
	C67.1,73.2,67.1,80.6,67.1,80.6z"/>
</svg>
