<?xml version="1.0" encoding="utf-8"?>
<!-- Generator: Adobe Illustrator 19.0.0, SVG Export Plug-In . SVG Version: 6.00 Build 0)  -->
<svg version="1.1" id="Capa_1" xmlns="http://www.w3.org/2000/svg" xmlns:xlink="http://www.w3.org/1999/xlink" x="0px" y="0px"
	 viewBox="0 0 105 105" style="enable-background:new 0 0 105 105;" xml:space="preserve">
<style type="text/css">
	.st0{fill:#FFFFFF;}
</style>
<path class="st0" d="M52.5,0C23.6,0,0,23.5,0,52.1c0,28.7,23.6,52.1,52.5,52.1S105,80.8,105,52.1C105,23.5,81.4,0,52.5,0z
	 M88.7,31.3H73.5c-1.6-6.8-4.2-12.5-7.3-18.8C75.6,16.2,84,22.4,88.7,31.3z M52.5,10.4c4.2,6.3,7.9,13,10,20.9H42.5
	C44.6,24,48.3,16.7,52.5,10.4z M12.1,62.6c-1-3.1-1.6-6.8-1.6-10.4c0-3.6,0.5-7.3,1.6-10.4h17.8c-0.5,3.6-0.5,6.8-0.5,10.4
	c0,3.6,0.5,6.8,0.5,10.4H12.1z M16.3,73h15.2c1.6,6.8,4.2,12.5,7.3,18.8C29.4,88.1,21,81.8,16.3,73z M31.5,31.3H16.3
	c5.2-8.9,13.1-15.1,22.6-18.8C35.7,18.8,33.1,24.5,31.5,31.3z M52.5,93.8c-4.2-6.3-7.9-13-10-20.9h19.9
	C60.4,80.3,56.7,87.6,52.5,93.8z M40.4,62.6c-0.5-3.6-1-6.8-1-10.4c0-3.6,0.5-6.8,1-10.4h24.7c0.5,3.6,1,6.8,1,10.4
	c0,3.6-1,6.8-1.6,10.4H40.4z M66.1,91.7c3.2-5.7,5.8-12,7.3-18.8h15.2C84,81.8,75.6,88.1,66.1,91.7z M75.6,62.6
	c0.5-3.6,0.5-6.8,0.5-10.4c0-3.6-0.5-6.8-0.5-10.4h17.8c1.1,3.1,1.6,6.8,1.6,10.4c0,3.6-0.5,7.3-1.6,10.4H75.6z"/>
</svg>
